<svg width="182" height="42" viewBox="0 0 182 42" fill="none" xmlns="http://www.w3.org/2000/svg">
<rect width="182" height="42" fill="#E5E5E5"/>
<g id="Frame">
<g id="Group 2">
<rect id="Rectangle 7" x="-634" y="-4388" width="1445" height="4759" fill="white"/>
<g id="Group 11">
<g id="Group 2_2">
<g id="Component">
<g id="chip">
<path id="chip bg" fill-rule="evenodd" clip-rule="evenodd" d="M181.257 21C181.257 32.55 171.84 42 160.329 42H21.6848C10.1747 42 0.757324 32.55 0.757324 21C0.757324 9.45 10.1747 0 21.6848 0H160.329C171.97 0 181.257 9.45 181.257 21Z" fill="#070707"/>
<g id="Component_2" opacity="0.1" filter="url(#filter0_f_0_1)">
<g id="chip_2">
<path id="chip bg_2" fill-rule="evenodd" clip-rule="evenodd" d="M175.24 29C175.24 39.45 166.555 48 155.941 48H28.0793C17.4645 48 8.77954 39.45 8.77954 29C8.77954 18.55 17.4645 10 28.0793 10H155.941C166.676 10 175.24 18.55 175.24 29Z" fill="#070707"/>
</g>
</g>
</g>
<g id="UX | UI &#208;&#180;&#208;&#184;&#208;&#183;&#208;&#176;&#208;&#185;&#208;&#189;&#208;&#181;&#209;&#128;">
<path id="Send message" d="M34.6035 27.252C33.3555 27.252 32.3055 26.976 31.4535 26.424C30.6015 25.86 30.0015 25.098 29.6535 24.138L31.7775 22.896C32.2695 24.18 33.2355 24.822 34.6755 24.822C35.3715 24.822 35.8815 24.696 36.2055 24.444C36.5295 24.192 36.6915 23.874 36.6915 23.49C36.6915 23.046 36.4935 22.704 36.0975 22.464C35.7015 22.212 34.9935 21.942 33.9735 21.654C33.4095 21.486 32.9295 21.318 32.5335 21.15C32.1495 20.982 31.7595 20.76 31.3635 20.484C30.9795 20.196 30.6855 19.836 30.4815 19.404C30.2775 18.972 30.1755 18.468 30.1755 17.892C30.1755 16.752 30.5775 15.846 31.3815 15.174C32.1975 14.49 33.1755 14.148 34.3155 14.148C35.3355 14.148 36.2295 14.4 36.9975 14.904C37.7775 15.396 38.3835 16.086 38.8155 16.974L36.7275 18.18C36.2235 17.1 35.4195 16.56 34.3155 16.56C33.7995 16.56 33.3915 16.68 33.0915 16.92C32.8035 17.148 32.6595 17.448 32.6595 17.82C32.6595 18.216 32.8215 18.54 33.1455 18.792C33.4815 19.032 34.1175 19.296 35.0535 19.584C35.4375 19.704 35.7255 19.8 35.9175 19.872C36.1215 19.932 36.3915 20.034 36.7275 20.178C37.0755 20.31 37.3395 20.436 37.5195 20.556C37.7115 20.676 37.9275 20.838 38.1675 21.042C38.4075 21.246 38.5875 21.456 38.7075 21.672C38.8395 21.888 38.9475 22.152 39.0315 22.464C39.1275 22.764 39.1755 23.094 39.1755 23.454C39.1755 24.618 38.7495 25.542 37.8975 26.226C37.0575 26.91 35.9595 27.252 34.6035 27.252ZM42.8957 23.454C43.2077 24.582 44.0537 25.146 45.4337 25.146C46.3217 25.146 46.9937 24.846 47.4497 24.246L49.3217 25.326C48.4337 26.61 47.1257 27.252 45.3977 27.252C43.9097 27.252 42.7157 26.802 41.8157 25.902C40.9157 25.002 40.4657 23.868 40.4657 22.5C40.4657 21.144 40.9097 20.016 41.7977 19.116C42.6857 18.204 43.8257 17.748 45.2177 17.748C46.5377 17.748 47.6237 18.204 48.4757 19.116C49.3397 20.028 49.7717 21.156 49.7717 22.5C49.7717 22.8 49.7417 23.118 49.6817 23.454H42.8957ZM42.8597 21.654H47.4497C47.3177 21.042 47.0417 20.586 46.6217 20.286C46.2137 19.986 45.7457 19.836 45.2177 19.836C44.5937 19.836 44.0777 19.998 43.6697 20.322C43.2617 20.634 42.9917 21.078 42.8597 21.654ZM56.3967 17.748C57.3807 17.748 58.1907 18.078 58.8267 18.738C59.4747 19.398 59.7987 20.31 59.7987 21.474V27H57.4767V21.762C57.4767 21.162 57.3147 20.706 56.9907 20.394C56.6667 20.07 56.2347 19.908 55.6947 19.908C55.0947 19.908 54.6147 20.094 54.2547 20.466C53.8947 20.838 53.7147 21.396 53.7147 22.14V27H51.3927V18H53.7147V19.008C54.2787 18.168 55.1727 17.748 56.3967 17.748ZM68.6034 14.4H70.9254V27H68.6034V25.938C67.9194 26.814 66.9474 27.252 65.6874 27.252C64.4754 27.252 63.4374 26.796 62.5734 25.884C61.7214 24.96 61.2954 23.832 61.2954 22.5C61.2954 21.168 61.7214 20.046 62.5734 19.134C63.4374 18.21 64.4754 17.748 65.6874 17.748C66.9474 17.748 67.9194 18.186 68.6034 19.062V14.4ZM64.3194 24.336C64.7994 24.804 65.3994 25.038 66.1194 25.038C66.8394 25.038 67.4334 24.804 67.9014 24.336C68.3694 23.856 68.6034 23.244 68.6034 22.5C68.6034 21.756 68.3694 21.15 67.9014 20.682C67.4334 20.202 66.8394 19.962 66.1194 19.962C65.3994 19.962 64.7994 20.202 64.3194 20.682C63.8514 21.15 63.6174 21.756 63.6174 22.5C63.6174 23.244 63.8514 23.856 64.3194 24.336ZM87.503 17.748C88.535 17.748 89.357 18.084 89.969 18.756C90.593 19.428 90.905 20.328 90.905 21.456V27H88.583V21.618C88.583 21.078 88.451 20.658 88.187 20.358C87.923 20.058 87.551 19.908 87.0709 19.908C86.543 19.908 86.129 20.082 85.829 20.43C85.541 20.778 85.397 21.282 85.397 21.942V27H83.075V21.618C83.075 21.078 82.943 20.658 82.679 20.358C82.415 20.058 82.043 19.908 81.563 19.908C81.047 19.908 80.633 20.082 80.321 20.43C80.021 20.778 79.871 21.282 79.871 21.942V27H77.5489V18H79.871V18.954C80.411 18.15 81.245 17.748 82.373 17.748C83.477 17.748 84.293 18.18 84.821 19.044C85.421 18.18 86.315 17.748 87.503 17.748ZM94.8391 23.454C95.1511 24.582 95.9971 25.146 97.3771 25.146C98.2651 25.146 98.9371 24.846 99.3931 24.246L101.265 25.326C100.377 26.61 99.0691 27.252 97.3411 27.252C95.8531 27.252 94.6591 26.802 93.7591 25.902C92.8591 25.002 92.4091 23.868 92.4091 22.5C92.4091 21.144 92.8531 20.016 93.7411 19.116C94.6291 18.204 95.7691 17.748 97.1611 17.748C98.4811 17.748 99.5671 18.204 100.419 19.116C101.283 20.028 101.715 21.156 101.715 22.5C101.715 22.8 101.685 23.118 101.625 23.454H94.8391ZM94.8031 21.654H99.3931C99.2611 21.042 98.9851 20.586 98.5651 20.286C98.1571 19.986 97.6891 19.836 97.1611 19.836C96.5371 19.836 96.0211 19.998 95.6131 20.322C95.2051 20.634 94.9351 21.078 94.8031 21.654ZM105.127 20.556C105.127 20.796 105.283 20.994 105.595 21.15C105.919 21.294 106.309 21.426 106.765 21.546C107.221 21.654 107.677 21.798 108.133 21.978C108.589 22.146 108.973 22.434 109.285 22.842C109.609 23.25 109.771 23.76 109.771 24.372C109.771 25.296 109.423 26.01 108.727 26.514C108.043 27.006 107.185 27.252 106.153 27.252C104.305 27.252 103.045 26.538 102.373 25.11L104.389 23.976C104.653 24.756 105.241 25.146 106.153 25.146C106.981 25.146 107.395 24.888 107.395 24.372C107.395 24.132 107.233 23.94 106.909 23.796C106.597 23.64 106.213 23.502 105.757 23.382C105.301 23.262 104.845 23.112 104.389 22.932C103.933 22.752 103.543 22.47 103.219 22.086C102.907 21.69 102.751 21.198 102.751 20.61C102.751 19.722 103.075 19.026 103.723 18.522C104.383 18.006 105.199 17.748 106.171 17.748C106.903 17.748 107.569 17.916 108.169 18.252C108.769 18.576 109.243 19.044 109.591 19.656L107.611 20.736C107.323 20.124 106.843 19.818 106.171 19.818C105.871 19.818 105.619 19.884 105.415 20.016C105.223 20.148 105.127 20.328 105.127 20.556ZM112.931 20.556C112.931 20.796 113.087 20.994 113.399 21.15C113.723 21.294 114.113 21.426 114.569 21.546C115.025 21.654 115.481 21.798 115.937 21.978C116.393 22.146 116.777 22.434 117.089 22.842C117.413 23.25 117.575 23.76 117.575 24.372C117.575 25.296 117.227 26.01 116.531 26.514C115.847 27.006 114.989 27.252 113.957 27.252C112.109 27.252 110.849 26.538 110.177 25.11L112.193 23.976C112.457 24.756 113.045 25.146 113.957 25.146C114.785 25.146 115.199 24.888 115.199 24.372C115.199 24.132 115.037 23.94 114.713 23.796C114.401 23.64 114.017 23.502 113.561 23.382C113.105 23.262 112.649 23.112 112.193 22.932C111.737 22.752 111.347 22.47 111.023 22.086C110.711 21.69 110.555 21.198 110.555 20.61C110.555 19.722 110.879 19.026 111.527 18.522C112.187 18.006 113.003 17.748 113.975 17.748C114.707 17.748 115.373 17.916 115.973 18.252C116.573 18.576 117.047 19.044 117.395 19.656L115.415 20.736C115.127 20.124 114.647 19.818 113.975 19.818C113.675 19.818 113.423 19.884 113.219 20.016C113.027 20.148 112.931 20.328 112.931 20.556ZM125.785 18H128.107V27H125.785V25.938C125.089 26.814 124.111 27.252 122.851 27.252C121.651 27.252 120.619 26.796 119.755 25.884C118.903 24.96 118.477 23.832 118.477 22.5C118.477 21.168 118.903 20.046 119.755 19.134C120.619 18.21 121.651 17.748 122.851 17.748C124.111 17.748 125.089 18.186 125.785 19.062V18ZM121.501 24.336C121.969 24.804 122.563 25.038 123.283 25.038C124.003 25.038 124.597 24.804 125.065 24.336C125.545 23.856 125.785 23.244 125.785 22.5C125.785 21.756 125.545 21.15 125.065 20.682C124.597 20.202 124.003 19.962 123.283 19.962C122.563 19.962 121.969 20.202 121.501 20.682C121.033 21.15 120.799 21.756 120.799 22.5C120.799 23.244 121.033 23.856 121.501 24.336ZM137.107 18H139.375V26.568C139.375 27.96 138.913 29.022 137.989 29.754C137.077 30.486 135.973 30.852 134.677 30.852C133.705 30.852 132.847 30.666 132.103 30.294C131.371 29.922 130.807 29.376 130.411 28.656L132.391 27.522C132.847 28.362 133.633 28.782 134.749 28.782C135.481 28.782 136.057 28.59 136.477 28.206C136.897 27.822 137.107 27.276 137.107 26.568V25.596C136.423 26.508 135.463 26.964 134.227 26.964C132.955 26.964 131.887 26.52 131.023 25.632C130.171 24.732 129.745 23.64 129.745 22.356C129.745 21.084 130.177 19.998 131.041 19.098C131.905 18.198 132.967 17.748 134.227 17.748C135.463 17.748 136.423 18.204 137.107 19.116V18ZM132.769 24.138C133.249 24.594 133.855 24.822 134.587 24.822C135.319 24.822 135.919 24.594 136.387 24.138C136.867 23.67 137.107 23.076 137.107 22.356C137.107 21.648 136.867 21.066 136.387 20.61C135.919 20.142 135.319 19.908 134.587 19.908C133.855 19.908 133.249 20.142 132.769 20.61C132.301 21.066 132.067 21.648 132.067 22.356C132.067 23.076 132.301 23.67 132.769 24.138ZM143.443 23.454C143.755 24.582 144.601 25.146 145.981 25.146C146.869 25.146 147.541 24.846 147.997 24.246L149.869 25.326C148.981 26.61 147.673 27.252 145.945 27.252C144.457 27.252 143.263 26.802 142.363 25.902C141.463 25.002 141.013 23.868 141.013 22.5C141.013 21.144 141.457 20.016 142.345 19.116C143.233 18.204 144.373 17.748 145.765 17.748C147.085 17.748 148.171 18.204 149.023 19.116C149.887 20.028 150.319 21.156 150.319 22.5C150.319 22.8 150.289 23.118 150.229 23.454H143.443ZM143.407 21.654H147.997C147.865 21.042 147.589 20.586 147.169 20.286C146.761 19.986 146.293 19.836 145.765 19.836C145.141 19.836 144.625 19.998 144.217 20.322C143.809 20.634 143.539 21.078 143.407 21.654Z" fill="white"/>
</g>
</g>
</g>
</g>
</g>
</g>
<defs>
<filter id="filter0_f_0_1" x="-11.2205" y="-10" width="206.461" height="78" filterUnits="userSpaceOnUse" color-interpolation-filters="sRGB">
<feFlood flood-opacity="0" result="BackgroundImageFix"/>
<feBlend mode="normal" in="SourceGraphic" in2="BackgroundImageFix" result="shape"/>
<feGaussianBlur stdDeviation="10" result="effect1_foregroundBlur_0_1"/>
</filter>
</defs>
</svg>
